<?xml version="1.0" standalone="no"?>
<!DOCTYPE svg PUBLIC "-//W3C//DTD SVG 20010904//EN"
 "http://www.w3.org/TR/2001/REC-SVG-20010904/DTD/svg10.dtd">
<svg version="1.0" xmlns="http://www.w3.org/2000/svg"
 width="50.000000pt" height="50.000000pt" viewBox="0 0 50.000000 50.000000"
 preserveAspectRatio="xMidYMid meet">
<metadata>
Created by potrace 1.16, written by Peter Selinger 2001-2019
</metadata>
<g transform="translate(0.000000,50.000000) scale(0.010000,-0.010000)"
fill="#000000" stroke="none">
<path d="M2420 4099 c-200 -11 -233 -17 -313 -57 -90 -45 -218 -169 -264 -257
-65 -125 -63 -94 -63 -901 l0 -733 -26 -20 c-35 -27 -95 -36 -249 -36 -108 0
-143 4 -205 23 -113 36 -203 88 -287 166 -72 67 -76 69 -90 51 -19 -26 -10
-88 27 -183 80 -208 253 -366 470 -433 75 -23 228 -32 320 -19 l35 5 -1 -80
c-1 -163 -74 -289 -189 -328 -114 -39 -233 -32 -343 20 -73 34 -177 138 -220
221 -18 34 -39 62 -46 62 -6 0 -26 -15 -42 -32 -25 -27 -188 -225 -227 -275
-6 -9 0 -28 19 -60 116 -200 331 -323 615 -353 105 -10 299 2 395 25 213 52
370 194 440 397 29 86 54 236 54 331 l0 67 258 0 c333 0 477 17 656 75 315
103 528 316 630 629 101 308 90 787 -24 1072 -97 243 -274 427 -503 522 -203
85 -493 120 -827 101z m260 -388 c289 -23 482 -129 577 -316 67 -132 93 -268
94 -487 0 -388 -102 -609 -333 -722 -138 -67 -259 -86 -560 -86 l-208 0 0 810
0 810 158 0 c86 0 209 -5 272 -9z m-594 -716 c99 -58 111 -190 24 -268 -135
-123 -338 26 -266 196 38 90 153 124 242 72z m62 -992 l-3 -598 -31 -85 c-44
-121 -56 -141 -119 -198 -78 -71 -156 -116 -255 -145 -112 -33 -153 -38 -312
-38 -217 1 -355 46 -490 159 -64 53 -152 156 -146 171 5 15 158 181 167 181 4
0 23 -20 41 -45 46 -61 122 -117 228 -168 86 -41 88 -42 197 -42 148 0 218 21
292 89 61 55 94 113 117 203 14 52 16 141 16 587 l0 526 150 0 151 0 -3 -597z"/>
</g>
</svg>
